<svg width="105" height="140" viewBox="0 0 105 140" fill="none" xmlns="http://www.w3.org/2000/svg">
<path d="M52.4998 0C23.5076 0 0 23.5076 0 52.4999C0 81.4923 43.7504 139.999 52.5001 139.999C61.2501 139.999 105 81.4923 105 52.4999C105 23.5076 81.4924 0 52.4998 0ZM52.4998 87.4995C33.197 87.4995 17.5003 71.7938 17.5003 52.4999C17.5003 33.2061 33.197 17.4998 52.4998 17.4998C71.8032 17.4998 87.4993 33.2061 87.4993 52.4999C87.4993 71.7938 71.8035 87.4995 52.4998 87.4995Z" fill="#019267"/>
<ellipse cx="52.5" cy="52.5" rx="43.5" ry="42.5" fill="#019267"/>
<path d="M28.3253 48.4779C27.978 49.0857 27.761 49.7368 27.6741 50.4313V51.4731L27.9346 67.6212L22.2046 79.6021C22.031 80.0363 21.9008 80.4702 21.8139 80.9044C21.7271 81.8595 21.9659 82.7492 22.5302 83.574C23.0945 84.3989 23.8976 84.8547 24.9394 84.9414C26.589 85.2019 27.8477 84.5942 28.716 83.1182L34.8366 69.9653C35.0102 69.6181 35.0971 69.3142 35.0971 69.0537V68.5328V58.5054L44.6036 62.6726L46.1664 72.4396C46.5137 74.0024 47.5121 74.9139 49.1616 75.1744C50.1165 75.3481 51.0065 75.1309 51.8312 74.5233C52.6559 73.9156 53.1552 73.1343 53.3288 72.1792V71.1374L51.3754 59.417C51.2018 58.2017 50.5507 57.3333 49.422 56.8124L40.9573 53.0358L46.2966 43.6595L49.0313 47.0454C49.2918 47.3927 49.6391 47.6532 50.0732 47.8268L60.2308 50.6918C61.7936 51.0391 62.8787 50.4747 63.4865 48.9988C63.747 48.3043 63.7252 47.5881 63.4214 46.8501C63.1176 46.1121 62.6183 45.6129 61.9238 45.3525L61.7936 45.2222L52.9381 42.6177L46.1664 34.6739C45.1245 33.5452 43.8656 32.8507 42.3898 32.5902C39.4379 32.1562 37.2241 33.198 35.7482 35.7157L28.3253 48.4779Z" fill="white"/>
<path d="M57.6263 71.6584L56.9752 76.4767L39.3946 80.7742L39.5248 83.7694H82.3694C83.0645 83.7694 83.6938 83.4874 84.2577 82.923C84.822 82.3586 85.1042 81.7293 85.1042 81.0347L84.974 23.6047L79.1138 22.1722L75.8581 37.2785L70.1281 39.6226L65.1795 53.5568L69.8677 64.2354L68.5654 68.2725L57.6263 71.6584Z" fill="white"/>
<path d="M45.6454 31.939C47.1213 31.939 48.4019 31.3964 49.4871 30.3112C50.5723 29.2258 51.115 27.9453 51.115 26.4695C51.115 24.9934 50.5723 23.7129 49.4871 22.6278C48.4018 21.5427 47.1213 21 45.6454 21C44.1694 21 42.8889 21.5427 41.8037 22.6278C40.7186 23.713 40.1759 24.9937 40.1759 26.4695C40.1759 27.9454 40.7186 29.226 41.8037 30.3112C42.8889 31.3964 44.1696 31.939 45.6454 31.939Z" fill="white"/>
<path d="M34.8366 32.7205C35.3575 31.8522 35.1404 31.1577 34.1855 30.6368L31.5809 29.0741C30.626 28.5532 29.888 28.7703 29.3671 29.7252L21.293 43.6595C20.7721 44.6145 20.9457 45.3091 21.8139 45.7431L24.5487 47.3059C25.4169 47.8268 26.1114 47.6532 26.6323 46.7849L34.8366 32.7205Z" fill="white"/>
</svg>
