<svg width="105" height="140" viewBox="0 0 105 140" fill="none" xmlns="http://www.w3.org/2000/svg">
<path d="M52.4998 0C23.5076 0 0 23.5076 0 52.4999C0 81.4923 43.7504 139.999 52.5001 139.999C61.2501 139.999 105 81.4923 105 52.4999C105 23.5076 81.4924 0 52.4998 0ZM52.4998 87.4995C33.197 87.4995 17.5003 71.7938 17.5003 52.4999C17.5003 33.2061 33.197 17.4998 52.4998 17.4998C71.8032 17.4998 87.4993 33.2061 87.4993 52.4999C87.4993 71.7938 71.8035 87.4995 52.4998 87.4995Z" fill="#00C897"/>
<ellipse cx="52.5" cy="52.5" rx="43.5" ry="42.5" fill="#00C897"/>
<rect x="45" y="22" width="16" height="66" rx="8" fill="white"/>
<rect x="20" y="62" width="16" height="66" rx="8" transform="rotate(-90 20 62)" fill="white"/>
</svg>
