<?xml version="1.0" standalone="no"?>
<!DOCTYPE svg PUBLIC "-//W3C//DTD SVG 20010904//EN"
 "http://www.w3.org/TR/2001/REC-SVG-20010904/DTD/svg10.dtd">
<svg version="1.0" xmlns="http://www.w3.org/2000/svg"
 width="512.000000pt" height="512.000000pt" viewBox="0 0 512.000000 512.000000"
 preserveAspectRatio="xMidYMid meet">

<g transform="translate(0.000000,512.000000) scale(0.100000,-0.100000)"
fill="#000000" stroke="none">
<path d="M4805 5111 c-11 -5 -29 -19 -40 -31 -20 -22 -20 -36 -20 -2521 l0
-2499 28 -27 c26 -27 33 -28 134 -31 62 -2 123 1 145 7 74 23 68 -207 68 2551
0 2731 5 2526 -61 2549 -37 13 -224 14 -254 2z"/>
<path d="M2840 5084 c-554 -35 -977 -186 -1310 -466 -157 -133 -360 -394 -360
-464 0 -52 38 -86 92 -82 46 3 45 2 148 149 25 35 86 106 135 158 234 243 536
401 908 475 191 38 315 49 547 49 221 0 330 -9 530 -45 63 -11 140 -22 171
-25 53 -5 57 -4 83 28 31 36 30 77 -2 112 -23 26 -46 34 -175 57 -222 40 -583
66 -767 54z"/>
<path d="M2098 4536 c-201 -70 -376 -182 -508 -323 -150 -160 -224 -332 -237
-548 -12 -207 13 -285 92 -285 27 0 44 8 66 30 l30 29 -7 98 c-26 384 198 682
625 829 131 46 162 84 127 153 -14 26 -53 51 -79 51 -7 0 -56 -15 -109 -34z"/>
<path d="M2943 4470 c-83 -17 -50 10 -536 -443 -259 -243 -281 -266 -331 -351
-179 -304 -678 -1121 -683 -1119 -4 1 -44 110 -89 242 -45 133 -92 254 -104
271 -28 39 -85 71 -504 286 -398 204 -436 219 -500 210 -62 -10 -135 -61 -166
-116 -54 -97 -22 -236 67 -292 21 -12 195 -104 387 -203 l351 -180 221 -650
c122 -358 231 -670 243 -692 22 -44 65 -82 116 -102 23 -8 126 -11 376 -9
l345 3 42 28 c80 53 81 54 122 583 20 258 40 477 45 485 5 7 124 183 266 389
256 373 258 376 384 493 70 64 130 117 135 117 4 0 213 -213 463 -473 516
-537 499 -523 633 -515 107 7 175 52 226 148 18 36 23 61 23 120 -1 91 -17
127 -103 220 -53 58 -58 68 -50 90 17 44 12 143 -10 193 -13 29 -63 91 -139
169 -65 68 -319 333 -565 589 -374 390 -456 470 -495 487 -61 25 -117 33 -170
22z"/>
<path d="M1719 1190 c-218 -33 -404 -208 -448 -418 -59 -286 117 -565 402
-638 131 -34 300 -5 415 72 242 160 318 478 174 724 -34 58 -134 158 -192 192
-100 58 -238 85 -351 68z"/>
</g>
</svg>
