<svg width="105" height="140" viewBox="0 0 105 140" fill="none" xmlns="http://www.w3.org/2000/svg">
<path d="M52.4998 0C23.5076 0 0 23.5076 0 52.4999C0 81.4923 43.7504 139.999 52.5001 139.999C61.2501 139.999 105 81.4923 105 52.4999C105 23.5076 81.4924 0 52.4998 0ZM52.4998 87.4995C33.197 87.4995 17.5003 71.7938 17.5003 52.4999C17.5003 33.2061 33.197 17.4998 52.4998 17.4998C71.8032 17.4998 87.4993 33.2061 87.4993 52.4999C87.4993 71.7938 71.8035 87.4995 52.4998 87.4995Z" fill="#019267"/>
<ellipse cx="52.5" cy="52.5" rx="43.5" ry="42.5" fill="#019267"/>
<path d="M56.7873 21.3518C52.216 22.6606 49.3328 27.4026 50.3002 32.0308C51.002 35.3881 53.6955 38.2333 57.0149 39.1059C60.2394 39.9404 63.6916 38.9162 65.9867 36.4693C67.7318 34.5915 68.4715 32.7136 68.4905 30.1909C68.4905 27.7251 67.7128 25.7714 65.9867 23.9315C63.6347 21.4087 60.0877 20.4034 56.7873 21.3518Z" fill="white"/>
<path d="M31.2184 30.0581C29.8717 30.703 29.0371 31.9928 29.0371 33.3965C29.0561 34.25 29.682 35.5019 30.3649 36.014C30.6873 36.2417 34.1774 37.9867 38.1038 39.8645C42.6941 42.0648 45.2548 43.3926 45.2548 43.5633C45.2548 43.8289 41.6888 45.0807 32.9635 47.8501C29.2458 49.0261 28.4681 49.5762 28.0698 51.3212C27.7283 52.8386 28.6767 54.6596 30.1183 55.2476C31.2753 55.7408 32.1668 55.5511 38.5211 53.5215C41.9543 52.4214 44.8375 51.5299 44.9513 51.5299C45.084 51.5299 45.1599 54.5268 45.1978 61.0518C45.2548 70.5737 45.2548 70.5927 45.691 71.5411C46.1083 72.4136 46.1083 72.5654 45.8997 73.6845C45.7859 74.3484 45.5772 74.9364 45.4444 74.9933C45.3117 75.0312 43.1683 74.8984 40.6645 74.6898C34.9931 74.1966 34.6516 74.1966 33.4946 74.7467C31.6926 75.5813 30.7253 76.9849 30.5925 78.9955C30.5166 80.0388 30.5925 80.3422 31.1046 81.3855C31.7495 82.7132 32.5652 83.453 33.836 83.8893C34.6327 84.1548 47.3223 85.2929 49.4277 85.2929C51.3624 85.2739 52.9178 84.3445 53.7903 82.6374C54.018 82.1632 54.4542 80.7785 54.7387 79.5456C55.0233 78.3127 55.3268 77.3263 55.4026 77.3643C55.4785 77.4022 56.7494 78.2747 58.2099 79.318L60.8844 81.2148L63.3882 86.9052C66.6506 94.3027 67.011 95.0045 67.8646 95.7063C69.1924 96.8065 71.0323 97.1289 72.6825 96.5788C73.8585 96.1805 74.75 95.3839 75.4139 94.1889C75.8691 93.3543 75.9639 92.937 75.9639 91.9317C75.945 90.7557 75.8122 90.3573 72.6066 83.1495C70.7857 78.9955 69.0596 75.3157 68.813 74.9933C68.5664 74.6518 66.4799 73.0396 64.2038 71.4083C61.9086 69.7771 59.8791 68.3165 59.6704 68.1458C59.2911 67.8803 59.2911 67.5957 59.1962 55.6649L59.1014 43.4685L58.5703 42.3873C57.4701 40.1301 54.9664 38.4609 52.5954 38.423C51.3624 38.385 52.0263 38.6696 41.0818 33.4154C33.0773 29.5839 32.5841 29.4132 31.2184 30.0581Z" fill="white"/>
</svg>
