<svg width="105" height="140" viewBox="0 0 105 140" fill="none" xmlns="http://www.w3.org/2000/svg">
<path d="M52.4998 0C23.5076 0 0 23.5076 0 52.4999C0 81.4923 43.7504 139.999 52.5001 139.999C61.2501 139.999 105 81.4923 105 52.4999C105 23.5076 81.4924 0 52.4998 0ZM52.4998 87.4995C33.197 87.4995 17.5003 71.7938 17.5003 52.4999C17.5003 33.2061 33.197 17.4998 52.4998 17.4998C71.8032 17.4998 87.4993 33.2061 87.4993 52.4999C87.4993 71.7938 71.8035 87.4995 52.4998 87.4995Z" fill="#019267"/>
<ellipse cx="52.5" cy="52.5" rx="43.5" ry="42.5" fill="#019267"/>
<path d="M19.7367 72.0197C25.3459 70.6085 32.1533 68.671 33.5559 67.9507C34.344 67.3149 38.4403 62.4479 38.4403 62.4479L40.7081 49.4282C36.9126 50.6016 35.8676 53.0103 34.6256 57.6418C34.2899 58.8906 33.159 59.7182 31.925 59.7182C31.686 59.7182 31.4424 59.6877 31.1991 59.6233C29.7077 59.2243 28.8204 57.6869 29.2218 56.1969C32.6643 40.8245 48.99 43.0878 49.0272 43.0901C54.7726 43.4744 59.667 42.0317 60.0662 41.4185C60.5064 40.7828 62.2778 37.9315 62.5484 32.7196C62.6279 31.1759 63.9529 29.9828 65.4871 30.0713C65.845 30.0899 66.1809 30.18 66.4915 30.3198C65.4583 29.2231 64.8153 27.756 64.8153 26.1313C64.8153 22.7448 67.559 20 70.9458 20C74.3327 20 77.074 22.7443 77.074 26.131C77.074 29.5159 74.3302 32.2589 70.9457 32.2589C69.721 32.2589 68.5876 31.8926 67.6305 31.2726C67.9721 31.7656 68.167 32.3636 68.136 33.009C67.7757 39.949 65.239 43.8467 64.4673 44.8753C62.9692 46.8805 58.8645 48.1198 54.4659 48.5606C54.4619 48.5792 54.4607 48.5932 54.4585 48.613L51.0143 65.0492C51.0143 65.0492 51.8984 74.1421 51.5826 76.4764C51.4528 77.4615 51.1134 80.0778 40.85 89.9844C40.1501 90.6619 39.2412 91 38.3361 91C37.3926 91 36.4433 90.6291 35.7346 89.8945C34.348 88.4582 34.3889 86.1661 35.8246 84.7795C39.3766 81.3438 44.4223 75.2629 44.4223 75.2629C44.4223 75.2629 44.2306 71.1869 43.8912 68.058C43.8696 67.758 43.3462 67.5825 43.1225 67.8551C42.5512 68.5957 38.9031 73.1009 37.5135 74.0103C35.3492 75.4236 26.5518 77.7648 21.5021 79.0328C21.2055 79.1098 20.9079 79.146 20.6161 79.146C18.9998 79.146 17.5252 78.0526 17.1114 76.408C16.6211 74.4702 17.7956 72.502 19.7367 72.0197Z" fill="white"/>
<path d="M48.4216 41.9542C44.5304 41.1196 42.0493 37.2889 42.8845 33.4002C43.7176 29.5092 47.5469 27.0311 51.437 27.8657C55.3313 28.7004 57.8088 32.5299 56.9752 36.417C56.1412 40.3079 52.3118 42.7872 48.4216 41.9542Z" fill="white"/>
<path d="M88.5992 33.7338L89.9 33.753L85.7232 51.4495L75.1327 51.4368L71.5701 33.7233L88.5992 33.7338ZM76.4535 50.4607L76.8334 49.7212L77.2137 50.4617L78.2716 50.4629L77.3619 48.6919L78.7145 46.0588L80.0669 48.6919L79.1566 50.4641L80.2132 50.4653L80.5953 49.7212L80.9779 50.4662L82.0357 50.4675L81.1239 48.6919L82.4762 46.0588L83.8288 48.6919L82.9162 50.4685L83.9727 50.4699L84.3572 49.7213L84.7421 50.4708L84.9487 50.4711L85.2165 49.3358L84.8858 48.6919L85.7779 46.955L86.6753 43.1496L86.2382 44.0005L84.8858 41.3674L86.2382 38.7342L87.2513 40.7067L87.5846 39.2959L86.7675 37.7048L88.3047 34.7119L87.2479 34.7113L86.2389 36.6756L85.2292 34.71L83.487 34.7088L82.4768 36.6756L81.4658 34.7075L79.7263 34.7063L78.7148 36.6756L77.7024 34.705L75.9655 34.7038L74.9527 36.6756L73.9392 34.7025L72.8816 34.7017L74.424 37.7051L73.6654 39.1824L73.9628 40.6616L74.9527 38.7344L76.3051 41.3676L74.9527 44.0007L74.4295 42.982L75.1098 46.365L76.305 48.692L75.7824 49.7095L75.9333 50.4603L76.4535 50.4607Z" fill="white"/>
<path d="M82.4767 38.7341L83.829 41.3674L82.4767 44.0004L81.1242 41.3674L82.4767 38.7341Z" fill="white"/>
<path d="M85.71 45.0295L84.3579 47.6626L83.005 45.0295L84.3579 42.3963L85.71 45.0295Z" fill="white"/>
<path d="M81.9478 45.0295L80.5957 47.6626L79.2428 45.0295L80.5957 42.3963L81.9478 45.0295Z" fill="white"/>
<path d="M78.7145 38.7341L80.0668 41.3674L78.7145 44.0004L77.3617 41.3674L78.7145 38.7341Z" fill="white"/>
<path d="M76.8337 42.3963L78.1859 45.0295L76.8337 47.6626L75.4808 45.0295L76.8337 42.3963Z" fill="white"/>
<path d="M75.4808 37.705L76.8337 35.0719L78.1859 37.705L76.8337 40.338L75.4808 37.705Z" fill="white"/>
<path d="M83.005 37.705L84.3579 35.0719L85.71 37.705L84.3579 40.338L83.005 37.705Z" fill="white"/>
<path d="M79.2428 37.705L80.5957 35.0719L81.9478 37.705L80.5957 40.338L79.2428 37.705Z" fill="white"/>
</svg>
