<svg width="105" height="140" viewBox="0 0 105 140" fill="none" xmlns="http://www.w3.org/2000/svg">
<path d="M52.4998 0C23.5076 0 0 23.5076 0 52.4999C0 81.4923 43.7504 139.999 52.5001 139.999C61.2501 139.999 105 81.4923 105 52.4999C105 23.5076 81.4924 0 52.4998 0ZM52.4998 87.4995C33.197 87.4995 17.5003 71.7938 17.5003 52.4999C17.5003 33.2061 33.197 17.4998 52.4998 17.4998C71.8032 17.4998 87.4993 33.2061 87.4993 52.4999C87.4993 71.7938 71.8035 87.4995 52.4998 87.4995Z" fill="#019267"/>
<ellipse cx="52.5" cy="52.5" rx="43.5" ry="42.5" fill="#019267"/>
<path d="M56.9778 20.451C55.3665 21.1385 54.3997 21.9119 53.4759 23.244C50.9408 26.9822 52.0365 31.9879 55.9251 34.4586C57.4934 35.4469 60.3508 35.7262 62.2843 35.0602C67.6124 33.277 69.3741 26.5955 65.5929 22.4705C64.046 20.7733 62.5422 20.1073 60.1359 20.0213C58.4602 19.9569 58.009 20.0213 56.9778 20.451Z" fill="white"/>
<path d="M51.6927 34.3512C51.1985 34.4586 50.6185 34.6305 50.4036 34.7379C50.1888 34.8668 47.3099 35.9195 44.0229 37.1226C40.7358 38.3042 37.814 39.4214 37.5132 39.6147C36.8043 40.0874 36.6324 40.5386 34.8707 46.5541C33.2809 52.011 33.109 53.1497 33.775 54.2453C34.7848 55.8996 37.4488 56.0715 38.8238 54.5891C39.0386 54.3313 39.8335 52.0325 40.5854 49.4544C41.3374 46.8763 42.1108 44.6635 42.2827 44.5346C42.7124 44.2123 45.5697 43.267 45.6986 43.3959C45.7631 43.4604 45.183 45.8666 44.4311 48.7669C43.6577 51.6458 43.0131 54.4387 42.9917 54.9758C42.9487 55.5559 43.3569 57.5969 44.0014 60.1534L45.0541 64.3858L41.5307 70.2509C38.4156 75.4501 38.0074 76.2665 37.9214 77.2547C37.6636 80.3914 40.9077 82.5827 43.7651 81.1863C44.9682 80.6277 44.7748 80.8855 48.9857 73.8817C53.4114 66.5557 53.218 66.9639 53.0462 65.5674C52.9817 64.9444 52.9817 64.4288 53.0676 64.4288C53.1751 64.4288 54.3567 65.2881 55.7102 66.3194L58.1808 68.1885L58.9113 73.0224C59.7921 79.0164 59.8566 79.2957 60.716 80.2625C61.5538 81.2078 62.4776 81.616 63.7667 81.616C65.0557 81.616 65.9795 81.2078 66.8174 80.2625C67.7627 79.1883 68.0205 78.1356 67.7412 76.3309C66.6885 68.876 65.9581 64.5147 65.7217 64.0421C65.292 63.2042 64.6905 62.71 59.8566 59.0792C57.4504 57.2961 55.4953 55.7707 55.4953 55.6848C55.4953 55.341 57.2785 48.8314 57.4074 48.7025C57.4934 48.6165 58.0305 49.3685 58.6105 50.3782C60.0285 52.8274 60.2218 52.9133 64.626 53.2356C66.5166 53.3645 68.6221 53.4719 69.331 53.4719C71.4365 53.4719 72.6825 52.3548 72.6825 50.4856C72.6825 49.3685 72.4033 48.7025 71.6728 48.015C70.9423 47.3275 70.5771 47.263 66.8389 47.0482C65.2061 46.9623 63.8526 46.8549 63.8097 46.7904C63.7667 46.7474 62.4562 44.4057 60.8663 41.5913C59.298 38.7769 57.8156 36.2632 57.5578 36.0269C56.6555 35.1676 55.5383 34.5875 54.3137 34.3726C52.9173 34.1148 52.9602 34.1148 51.6927 34.3512Z" fill="white"/>
<path d="M30.9606 82.2175C29.8219 82.905 29.6716 84.7527 30.6383 85.655C31.2614 86.2351 33.152 87.0944 34.7633 87.5241C35.8589 87.8034 38.3941 87.8464 53.0247 87.8464C71.6298 87.8464 71.1786 87.8678 73.8856 86.5573C75.6258 85.7194 76.0125 85.2468 76.0125 84.0437C76.0125 83.2273 75.9051 82.991 75.3036 82.4539C74.4227 81.659 73.8427 81.6804 72.1884 82.4754C71.4579 82.8191 70.3408 83.2058 69.6963 83.3347C68.9873 83.4636 62.6065 83.5496 52.8313 83.5496C35.773 83.5496 35.6871 83.5496 33.6461 82.3464C32.5934 81.7449 31.777 81.7019 30.9606 82.2175Z" fill="white"/>
<path d="M37.6637 89.3932C36.2027 89.8014 35.3004 91.069 35.3004 92.7232C35.3004 94.0552 35.8805 95.0005 37.0406 95.6021C39.0816 96.6333 41.5308 95.3872 41.896 93.1529C42.2612 90.7897 39.9624 88.7272 37.6637 89.3932Z" fill="white"/>
<path d="M66.4737 89.4147C65.335 89.7799 64.3467 90.8971 64.1964 92.0142C63.6378 95.645 68.2353 97.5142 70.2548 94.4849C70.7275 93.7759 70.7919 93.4752 70.706 92.358C70.6416 91.3697 70.4912 90.94 70.083 90.5104C69.0947 89.4362 67.6982 89.0065 66.4737 89.4147Z" fill="white"/>
</svg>
