<svg width="105" height="140" viewBox="0 0 105 140" fill="none" xmlns="http://www.w3.org/2000/svg">
<path d="M52.4998 0C23.5076 0 0 23.5076 0 52.4999C0 81.4923 43.7504 139.999 52.5001 139.999C61.2501 139.999 105 81.4923 105 52.4999C105 23.5076 81.4924 0 52.4998 0ZM52.4998 87.4995C33.197 87.4995 17.5003 71.7938 17.5003 52.4999C17.5003 33.2061 33.197 17.4998 52.4998 17.4998C71.8032 17.4998 87.4993 33.2061 87.4993 52.4999C87.4993 71.7938 71.8035 87.4995 52.4998 87.4995Z" fill="#019267"/>
<ellipse cx="52.5" cy="52.5" rx="43.5" ry="42.5" fill="#019267"/>
<path d="M44.8066 21.979C36.2652 30.1528 19.7014 47.1708 20.0041 47.4735C20.0473 47.5384 20.9772 47.4735 22.0584 47.3221C23.1395 47.1924 24.1559 47.1275 24.3289 47.1924C24.5235 47.2573 24.6965 48.2087 24.8695 50.5008C25.2587 55.2148 25.7344 61.1398 26.102 66.0484C27.2697 81.3364 27.6373 85.8125 27.7454 85.9423C27.8103 85.9855 30.4268 85.899 33.5839 85.726C52.6777 84.6448 50.2342 84.6448 64.0518 85.8342C73.8042 86.6775 77.6965 86.9586 77.8262 86.8289C77.8911 86.764 78.1722 84.2556 78.4533 81.2499C78.7128 78.2442 79.0588 74.6979 79.1885 73.4005C79.5129 70.0055 80.6589 57.4637 81.0265 52.8578C81.4806 47.387 81.1563 47.9492 83.7944 48.1222L86 48.252L84.3566 46.5653C83.47 45.6138 80.3994 42.4135 77.5451 39.4511C74.6907 36.467 68.9604 30.4988 64.787 26.1524C60.6136 21.806 57.1322 18.2165 57.0241 18.1516C56.916 18.0867 56.4619 18.9733 56.0294 20.0977C55.5753 21.2222 54.8833 22.9953 54.4941 24.0117L53.7589 25.8713L55.4888 26.8011C56.4619 27.3201 57.3484 27.8174 57.4998 27.9256C57.8025 28.1634 57.8025 28.1418 54.8185 32.6828C53.8454 34.2181 53.0237 35.5155 53.0237 35.602C53.0237 35.7101 53.6724 36.4886 54.4508 37.3752C55.2942 38.305 55.8131 39.0835 55.7483 39.2781C55.6834 39.4294 54.9482 41.7864 54.1265 44.4894C53.3048 47.1924 52.4398 50.0035 52.202 50.7603L51.7695 52.1226L52.9372 53.4633C53.9319 54.6094 54.0832 54.8905 53.9967 55.4527C53.8886 56.0365 53.0237 62.4372 53.0237 62.6102C53.0237 62.6534 54.4076 62.7183 56.1159 62.7399L59.1865 62.8048V71.9949V81.185L52.9804 81.2499L46.7528 81.2932V71.9949V62.6967H48.8719H51.0127L51.164 58.653L51.2938 54.5877L49.7801 53.2038C48.807 52.3389 48.2881 51.7118 48.3529 51.5171C48.4178 51.3442 48.98 48.3384 49.5639 44.8138L50.6667 38.3915L49.1098 36.8346L47.5745 35.2777L48.1583 34.0235C50.2558 29.6122 51.0775 27.8174 51.0775 27.6661C51.0775 27.5796 50.3207 27.1904 49.4125 26.8011C48.4827 26.4335 47.661 26.0443 47.5745 25.9794C47.4447 25.8497 47.6826 24.6387 48.7638 19.5571C48.9584 18.7354 49.0881 18.0219 49.0449 18.0002C49.0233 17.9786 47.1204 19.7734 44.8066 21.979ZM39.8764 51.7983C40.0926 53.3336 40.244 54.9337 40.2007 55.3446L40.1575 56.0798L36.8491 56.4906C35.011 56.7285 33.4325 56.815 33.346 56.7285C33.173 56.5555 32.7622 53.8525 32.4162 50.6522L32.308 49.744L33.2163 49.5926C34.4921 49.3764 39.0331 48.9007 39.2925 48.9439C39.4223 48.9872 39.6818 50.263 39.8764 51.7983ZM68.7874 49.398C70.1281 49.571 71.2742 49.744 71.2958 49.7656C71.4039 49.8737 70.5822 56.6636 70.4525 56.7934C70.3876 56.8582 68.8091 56.7285 66.9278 56.4906L63.5112 56.0798V55.1283C63.5329 53.9606 64.0302 49.2899 64.1599 49.0737C64.2681 48.9007 65.1114 48.9655 68.7874 49.398Z" fill="white"/>
</svg>
