<svg width="57" height="57" viewBox="0 0 57 57" fill="none" xmlns="http://www.w3.org/2000/svg">
<path d="M31.35 25.65H14.25C13.4941 25.65 12.7692 25.9503 12.2347 26.4847C11.7003 27.0192 11.4 27.7441 11.4 28.5C11.4 29.2559 11.7003 29.9808 12.2347 30.5153C12.7692 31.0497 13.4941 31.35 14.25 31.35H31.35C32.1059 31.35 32.8308 31.0497 33.3653 30.5153C33.8997 29.9808 34.2 29.2559 34.2 28.5C34.2 27.7441 33.8997 27.0192 33.3653 26.4847C32.8308 25.9503 32.1059 25.65 31.35 25.65ZM42.75 14.25H14.25C13.4941 14.25 12.7692 14.5503 12.2347 15.0847C11.7003 15.6192 11.4 16.3441 11.4 17.1C11.4 17.8559 11.7003 18.5808 12.2347 19.1153C12.7692 19.6497 13.4941 19.95 14.25 19.95H42.75C43.5059 19.95 44.2308 19.6497 44.7653 19.1153C45.2997 18.5808 45.6 17.8559 45.6 17.1C45.6 16.3441 45.2997 15.6192 44.7653 15.0847C44.2308 14.5503 43.5059 14.25 42.75 14.25ZM48.45 0H8.55C6.2824 0 4.10767 0.900801 2.50424 2.50424C0.900801 4.10767 0 6.2824 0 8.55V37.05C0 39.3176 0.900801 41.4923 2.50424 43.0958C4.10767 44.6992 6.2824 45.6 8.55 45.6H41.5815L52.1265 56.1735C52.3928 56.4376 52.7086 56.6466 53.0559 56.7884C53.4031 56.9303 53.7749 57.0022 54.15 57C54.5239 57.0096 54.8948 56.9315 55.233 56.772C55.7535 56.5582 56.199 56.1951 56.5134 55.7285C56.8279 55.2619 56.9972 54.7127 57 54.15V8.55C57 6.2824 56.0992 4.10767 54.4958 2.50424C52.8923 0.900801 50.7176 0 48.45 0ZM51.3 47.2815L44.7735 40.7265C44.5072 40.4624 44.1914 40.2534 43.8441 40.1115C43.4969 39.9697 43.1251 39.8978 42.75 39.9H8.55C7.79413 39.9 7.06922 39.5997 6.53475 39.0653C6.00027 38.5308 5.7 37.8059 5.7 37.05V8.55C5.7 7.79413 6.00027 7.06922 6.53475 6.53475C7.06922 6.00027 7.79413 5.7 8.55 5.7H48.45C49.2059 5.7 49.9308 6.00027 50.4653 6.53475C50.9997 7.06922 51.3 7.79413 51.3 8.55V47.2815Z" fill="#848484"/>
</svg>
