<svg width="35" height="34" viewBox="0 0 35 34" fill="none" xmlns="http://www.w3.org/2000/svg">
<rect width="35" height="34" rx="17" fill="white"/>
<g clip-path="url(#clip0_238_43)">
<path d="M18.5924 9.29198C20.3662 9.54513 21.9548 10.3726 23.1645 11.5823C24.4031 12.8208 25.2424 14.4587 25.4717 16.2851H27.8792V18.5924H25.4344C25.1591 20.3135 24.3436 21.8545 23.1645 23.0319C21.9565 24.2399 20.3662 25.0691 18.5924 25.3222V27.8775H16.2851V25.3222C14.5114 25.0691 12.9228 24.2416 11.7148 23.0319C10.5357 21.8528 9.72013 20.3135 9.44489 18.5924H7V16.2851H9.40581C9.63518 14.4587 10.4745 12.8208 11.7131 11.5823C12.9211 10.3743 14.5097 9.54513 16.2834 9.29198V7H18.5907V9.29198H18.5924ZM17.4388 13.0162C19.8089 13.0162 21.7288 14.9378 21.7288 17.3063C21.7288 19.6764 19.8072 21.5963 17.4388 21.5963C15.0686 21.5963 13.1488 19.6747 13.1488 17.3063C13.1488 14.9378 15.0686 13.0162 17.4388 13.0162ZM22.1213 12.6255C20.9235 11.4276 19.2669 10.6852 17.4388 10.6852C15.6106 10.6852 13.9541 11.4259 12.7563 12.6255C11.5585 13.8233 10.816 15.4798 10.816 17.308C10.816 19.1361 11.5568 20.7926 12.7563 21.9904C13.9541 23.1883 15.6106 23.9307 17.4388 23.9307C19.2669 23.9307 20.9235 23.19 22.1213 21.9904C23.3191 20.7926 24.0616 19.1361 24.0616 17.308C24.0599 15.4781 23.3191 13.8233 22.1213 12.6255Z" fill="#666666"/>
</g>
<defs>
<clipPath id="clip0_238_43">
<rect width="20.8776" height="20.8776" fill="white" transform="translate(7 7)"/>
</clipPath>
</defs>
</svg>
