<svg width="57" height="57" viewBox="0 0 57 57" fill="none" xmlns="http://www.w3.org/2000/svg">
<path d="M13.5375 37.0792C15.8875 36.5801 18.0738 36.3542 20.1337 36.3542C24.5891 36.3542 28.3573 37.3129 31.7807 38.1838L31.8882 38.2112C35.3901 39.1019 38.5444 39.8922 42.2435 39.8922C45.4135 39.8922 49.0773 39.3042 53.5595 37.5231L53.5975 37.508L53.6358 37.494C53.8827 37.404 54.0087 37.2825 54.0691 37.1997C54.1307 37.1152 54.15 37.0382 54.15 36.9721V3.42111C54.15 3.28863 54.1243 3.23314 54.1172 3.21864C54.1085 3.2009 54.088 3.16632 54.028 3.11838C53.8912 3.00919 53.5586 2.85 53.0256 2.85C52.7169 2.85 52.3812 2.91601 52.055 3.06437C46.7036 5.50743 42.5259 6.43176 38.8713 6.43176C35.1957 6.43176 32.2482 5.48356 29.6313 4.64173C29.5065 4.60156 29.3823 4.56163 29.2589 4.52206C26.5315 3.6475 23.9979 2.88433 20.6249 2.88373L13.5375 37.0792ZM13.5375 37.0792V3.9092C16.3705 3.17815 18.7008 2.884 20.6242 2.88373L13.5375 37.0792ZM4.275 3.5625V54.15H2.85V3.5625C2.85 3.16044 3.16044 2.85 3.5625 2.85C3.96456 2.85 4.275 3.16044 4.275 3.5625Z" stroke="white" stroke-width="5.7"/>
</svg>
