<svg width="287" height="85" viewBox="0 0 287 85" fill="none" xmlns="http://www.w3.org/2000/svg">
<path d="M18.8273 38.816H23.4833L28.4753 56.672H28.5713L31.8353 41.84L29.3873 41.696V37.856H39.0353V41.552L37.4513 41.648C36.8113 41.712 36.3793 42.096 36.1553 42.8L31.5953 62H24.6833L20.7473 47.696H20.6033L16.5233 62H9.46732L4.61932 42.848C4.45932 42.4 4.28332 42.096 4.09132 41.936C3.93132 41.776 3.64332 41.68 3.22732 41.648L1.83532 41.552V37.856H12.8273V41.696L10.1393 41.84L13.4513 56.576H13.5473L18.8273 38.816ZM49.7836 37.856V58.016L52.5196 58.16V62H41.0956V58.352L42.6796 58.208C43.6076 58.112 44.0716 57.6 44.0716 56.672V43.328C44.0716 42.784 43.9756 42.416 43.7836 42.224C43.6236 42.032 43.3196 41.936 42.8716 41.936L41.1916 41.84V37.856H49.7836ZM43.7356 33.728C43.0636 33.056 42.7276 32.208 42.7276 31.184C42.7276 30.16 43.0636 29.312 43.7356 28.64C44.4076 27.936 45.2876 27.584 46.3756 27.584C47.4636 27.584 48.3436 27.936 49.0156 28.64C49.7196 29.312 50.0716 30.16 50.0716 31.184C50.0716 32.208 49.7196 33.056 49.0156 33.728C48.3436 34.368 47.4636 34.688 46.3756 34.688C45.2876 34.688 44.4076 34.368 43.7356 33.728ZM58.2747 56.624V33.248C58.2747 32.736 58.1787 32.384 57.9867 32.192C57.8267 32 57.5227 31.888 57.0747 31.856L55.3947 31.76V27.776H63.9387V48.56C65.6987 48.4 67.2347 47.856 68.5467 46.928C69.8587 46 70.7547 44.784 71.2347 43.28C71.3307 42.96 71.3787 42.704 71.3787 42.512C71.3787 41.968 71.0747 41.696 70.4667 41.696L68.6427 41.6V37.856H78.5787V41.744L76.2747 41.84C75.8587 45.104 74.4507 47.68 72.0507 49.568L76.7547 58.016L79.6827 58.16V62H72.6747L67.2027 52.016C66.1467 52.304 65.0587 52.528 63.9387 52.688V58.016H63.9867L66.7227 58.16V62H55.2987V58.352L56.8827 58.208C57.3627 58.144 57.7147 58.016 57.9387 57.824C58.1627 57.6 58.2747 57.2 58.2747 56.624ZM90.6586 37.856V58.016L93.3946 58.16V62H81.9706V58.352L83.5546 58.208C84.4826 58.112 84.9466 57.6 84.9466 56.672V43.328C84.9466 42.784 84.8506 42.416 84.6586 42.224C84.4986 42.032 84.1946 41.936 83.7466 41.936L82.0666 41.84V37.856H90.6586ZM84.6106 33.728C83.9386 33.056 83.6026 32.208 83.6026 31.184C83.6026 30.16 83.9386 29.312 84.6106 28.64C85.2826 27.936 86.1626 27.584 87.2506 27.584C88.3386 27.584 89.2186 27.936 89.8906 28.64C90.5946 29.312 90.9466 30.16 90.9466 31.184C90.9466 32.208 90.5946 33.056 89.8906 33.728C89.2186 34.368 88.3386 34.688 87.2506 34.688C86.1626 34.688 85.2826 34.368 84.6106 33.728ZM98.8617 66.56V43.328C98.8617 42.784 98.7657 42.416 98.5737 42.224C98.4137 42 98.1097 41.888 97.6617 41.888L95.6457 41.744V37.856H103.758V40.976C104.27 40.016 105.198 39.136 106.542 38.336C107.886 37.536 109.486 37.136 111.342 37.136C117.134 37.136 120.03 41.2 120.03 49.328C120.03 53.648 119.086 56.96 117.198 59.264C115.31 61.568 112.75 62.72 109.518 62.72C107.598 62.72 105.886 62.256 104.382 61.328V67.952L108.27 68.144V71.936H95.8857V68.288L97.4697 68.144C97.9497 68.08 98.3017 67.936 98.5257 67.712C98.7497 67.52 98.8617 67.136 98.8617 66.56ZM114.078 49.808C114.078 44.464 112.462 41.792 109.23 41.792C107.886 41.792 106.734 42.208 105.774 43.04C104.846 43.84 104.382 44.8 104.382 45.92V56.96C105.598 57.76 107.07 58.16 108.798 58.16C110.558 58.16 111.87 57.36 112.734 55.76C113.63 54.16 114.078 52.176 114.078 49.808ZM130.127 27.776V58.016L132.863 58.16V62H121.439V58.352L123.023 58.208C123.951 58.112 124.415 57.6 124.415 56.672V33.008C124.415 32.304 124.015 31.92 123.215 31.856L121.535 31.76V27.776H130.127ZM155.944 38.816V56.672C155.944 57.184 156.024 57.536 156.184 57.728C156.376 57.92 156.696 58.032 157.144 58.064L158.68 58.16V62H151.048V59.216L150.904 59.168C149.304 61.472 147.112 62.624 144.328 62.624C141.064 62.624 138.648 61.584 137.08 59.504C135.512 57.424 134.728 54.576 134.728 50.96C134.728 46.608 135.784 43.216 137.896 40.784C140.008 38.352 143.176 37.136 147.4 37.136C150.12 37.136 152.968 37.696 155.944 38.816ZM150.376 54.368V41.936C149.48 41.52 148.248 41.312 146.68 41.312C144.536 41.312 142.984 42.176 142.024 43.904C141.064 45.632 140.584 47.92 140.584 50.768C140.584 55.952 142.248 58.544 145.576 58.544C146.984 58.544 148.136 58.128 149.032 57.296C149.928 56.432 150.376 55.456 150.376 54.368ZM165.994 49.664C165.994 52.384 166.506 54.496 167.53 56C168.554 57.504 170.026 58.256 171.946 58.256C173.898 58.256 175.818 57.568 177.706 56.192L179.77 59.888C177.498 61.744 174.65 62.672 171.226 62.672C167.802 62.672 165.098 61.6 163.114 59.456C161.162 57.28 160.186 54.08 160.186 49.856C160.186 45.632 161.306 42.464 163.546 40.352C165.818 38.208 168.362 37.136 171.178 37.136C174.026 37.136 176.666 37.792 179.098 39.104V45.344L174.682 45.68V43.376C174.682 42.512 174.362 41.984 173.722 41.792C173.114 41.568 172.474 41.456 171.802 41.456C167.93 41.456 165.994 44.192 165.994 49.664ZM193.388 37.136C195.788 37.136 197.692 37.728 199.1 38.912C200.508 40.064 201.212 41.696 201.212 43.808C201.212 45.216 200.908 46.464 200.3 47.552C199.692 48.608 198.94 49.44 198.044 50.048C197.148 50.656 196.06 51.152 194.78 51.536C192.636 52.176 190.22 52.496 187.532 52.496C187.628 54.192 188.156 55.568 189.116 56.624C190.076 57.648 191.548 58.16 193.532 58.16C195.516 58.16 197.5 57.456 199.484 56.048L201.308 59.936C200.668 60.512 199.58 61.104 198.044 61.712C196.54 62.32 194.812 62.624 192.86 62.624C188.956 62.624 186.092 61.552 184.268 59.408C182.444 57.232 181.532 54.256 181.532 50.48C181.532 46.704 182.572 43.536 184.652 40.976C186.732 38.416 189.644 37.136 193.388 37.136ZM191.18 48.128C192.364 47.904 193.452 47.44 194.444 46.736C195.436 46 195.932 45.136 195.932 44.144C195.932 42.192 194.972 41.216 193.052 41.216C191.26 41.216 189.884 41.936 188.924 43.376C187.964 44.784 187.436 46.48 187.34 48.464C188.748 48.432 190.028 48.32 191.18 48.128ZM207.47 62.72C206.35 62.72 205.486 62.416 204.878 61.808C204.27 61.168 203.966 60.352 203.966 59.36C203.966 58.336 204.27 57.504 204.878 56.864C205.518 56.192 206.366 55.856 207.422 55.856C208.51 55.856 209.374 56.176 210.014 56.816C210.654 57.424 210.974 58.24 210.974 59.264C210.974 60.256 210.67 61.088 210.062 61.76C209.454 62.4 208.59 62.72 207.47 62.72ZM242.883 56.624V43.328C242.883 42.816 242.787 42.464 242.595 42.272C242.435 42.048 242.131 41.92 241.683 41.888L239.667 41.744V37.856H247.779V41.456C248.355 40.208 249.251 39.184 250.467 38.384C251.683 37.552 253.075 37.136 254.643 37.136C256.243 37.136 257.763 37.488 259.203 38.192V45.344L254.739 45.68V43.472C254.739 42.832 254.579 42.432 254.259 42.272C253.907 42.112 253.475 42.032 252.963 42.032C251.683 42.032 250.627 42.496 249.795 43.424C248.995 44.32 248.595 45.472 248.595 46.88V58.016L252.771 58.208V62H239.907V58.352L241.491 58.208C241.971 58.144 242.323 58.016 242.547 57.824C242.771 57.6 242.883 57.2 242.883 56.624ZM282.479 61.952C282.191 65.504 281.167 68.112 279.407 69.776C277.647 71.44 274.895 72.272 271.151 72.272C267.407 72.272 264.479 71.744 262.367 70.688V64.016L266.927 63.632V65.936C266.927 66.8 267.327 67.376 268.127 67.664C268.927 67.984 270.031 68.144 271.439 68.144C273.487 68.144 274.927 67.52 275.759 66.272C276.591 65.056 277.007 63.328 277.007 61.088V58.448C275.471 60.24 273.343 61.136 270.623 61.136C268.959 61.136 267.487 60.816 266.207 60.176C264.959 59.536 263.983 58.672 263.279 57.584C261.903 55.408 261.215 52.848 261.215 49.904C261.215 45.712 262.351 42.544 264.623 40.4C266.895 38.224 269.919 37.136 273.695 37.136C276.831 37.136 279.791 37.728 282.575 38.912V56.72C282.575 59.44 282.543 61.184 282.479 61.952ZM277.007 52.208V41.888C275.887 41.504 274.607 41.312 273.167 41.312C271.215 41.312 269.711 42.032 268.655 43.472C267.631 44.912 267.119 46.864 267.119 49.328C267.119 54.384 268.783 56.912 272.111 56.912C273.487 56.912 274.639 56.496 275.567 55.664C276.527 54.8 277.007 53.648 277.007 52.208Z" fill="#00C09A"/>
<path d="M225 35C217.821 35 212 40.8209 212 48C212 55.179 222.833 69.6665 225 69.6665C227.167 69.6665 238 55.179 238 48C238 40.8209 232.179 35 225 35ZM225 56.6666C220.22 56.6666 216.333 52.7775 216.333 48C216.333 43.2225 220.22 39.3333 225 39.3333C229.78 39.3333 233.667 43.2225 233.667 48C233.667 52.7775 229.78 56.6666 225 56.6666Z" fill="#FFD800"/>
</svg>
