<svg width="851" height="135" viewBox="0 0 851 135" fill="none" xmlns="http://www.w3.org/2000/svg">
<path d="M51.896 34.448H65.864L80.84 88.016H81.128L90.92 43.52L83.576 43.088V31.568H112.52V42.656L107.768 42.944C105.848 43.136 104.552 44.288 103.88 46.4L90.2 104H69.464L57.656 61.088H57.224L44.984 104H23.816L9.27198 46.544C8.79198 45.2 8.26398 44.288 7.68798 43.808C7.20798 43.328 6.34398 43.04 5.09598 42.944L0.919983 42.656V31.568H33.896V43.088L25.832 43.52L35.768 87.728H36.056L51.896 34.448Z" fill="#00C09A"/>
<path d="M144.765 31.568V92.048L152.973 92.48V104H118.701V93.056L123.453 92.624C126.237 92.336 127.629 90.8 127.629 88.016V47.984C127.629 46.352 127.341 45.248 126.765 44.672C126.285 44.096 125.373 43.808 124.029 43.808L118.989 43.52V31.568H144.765ZM126.621 19.184C124.605 17.168 123.597 14.624 123.597 11.552C123.597 8.48001 124.605 5.93601 126.621 3.92001C128.637 1.80801 131.277 0.752014 134.541 0.752014C137.805 0.752014 140.445 1.80801 142.461 3.92001C144.573 5.93601 145.629 8.48001 145.629 11.552C145.629 14.624 144.573 17.168 142.461 19.184C140.445 21.104 137.805 22.064 134.541 22.064C131.277 22.064 128.637 21.104 126.621 19.184Z" fill="#00C09A"/>
<path d="M170.238 87.872V17.744C170.238 16.208 169.95 15.152 169.374 14.576C168.894 14 167.982 13.664 166.638 13.568L161.598 13.28V1.32801H187.23V63.68C192.51 63.2 197.118 61.568 201.054 58.784C204.99 56 207.678 52.352 209.118 47.84C209.406 46.88 209.55 46.112 209.55 45.536C209.55 43.904 208.638 43.088 206.814 43.088L201.342 42.8V31.568H231.15V43.232L224.238 43.52C222.99 53.312 218.766 61.04 211.566 66.704L225.678 92.048L234.462 92.48V104H213.438L197.022 74.048C193.854 74.912 190.59 75.584 187.23 76.064V92.048H187.374L195.582 92.48V104H161.31V93.056L166.062 92.624C167.502 92.432 168.558 92.048 169.23 91.472C169.902 90.8 170.238 89.6 170.238 87.872Z" fill="#00C09A"/>
<path d="M267.39 31.568V92.048L275.598 92.48V104H241.326V93.056L246.078 92.624C248.862 92.336 250.254 90.8 250.254 88.016V47.984C250.254 46.352 249.966 45.248 249.39 44.672C248.91 44.096 247.998 43.808 246.654 43.808L241.614 43.52V31.568H267.39ZM249.246 19.184C247.23 17.168 246.222 14.624 246.222 11.552C246.222 8.48001 247.23 5.93601 249.246 3.92001C251.262 1.80801 253.902 0.752014 257.166 0.752014C260.43 0.752014 263.07 1.80801 265.086 3.92001C267.198 5.93601 268.254 8.48001 268.254 11.552C268.254 14.624 267.198 17.168 265.086 19.184C263.07 21.104 260.43 22.064 257.166 22.064C253.902 22.064 251.262 21.104 249.246 19.184Z" fill="#00C09A"/>
<path d="M291.999 117.68V47.984C291.999 46.352 291.711 45.248 291.135 44.672C290.655 44 289.743 43.664 288.399 43.664L282.351 43.232V31.568H306.687V40.928C308.223 38.048 311.007 35.408 315.039 33.008C319.071 30.608 323.871 29.408 329.439 29.408C346.815 29.408 355.503 41.6 355.503 65.984C355.503 78.944 352.671 88.88 347.007 95.792C341.343 102.704 333.663 106.16 323.967 106.16C318.207 106.16 313.071 104.768 308.559 101.984V121.856L320.223 122.432V133.808H283.071V122.864L287.823 122.432C289.263 122.24 290.319 121.808 290.991 121.136C291.663 120.56 291.999 119.408 291.999 117.68ZM337.647 67.424C337.647 51.392 332.799 43.376 323.103 43.376C319.071 43.376 315.615 44.624 312.735 47.12C309.951 49.52 308.559 52.4 308.559 55.76V88.88C312.207 91.28 316.623 92.48 321.807 92.48C327.087 92.48 331.023 90.08 333.615 85.28C336.303 80.48 337.647 74.528 337.647 67.424Z" fill="#00C09A"/>
<path d="M385.795 1.32801V92.048L394.003 92.48V104H359.731V93.056L364.483 92.624C367.267 92.336 368.659 90.8 368.659 88.016V17.024C368.659 14.912 367.459 13.76 365.059 13.568L360.019 13.28V1.32801H385.795Z" fill="#00C09A"/>
<path d="M463.246 34.448V88.016C463.246 89.552 463.485 90.608 463.965 91.184C464.541 91.76 465.501 92.096 466.845 92.192L471.453 92.48V104H448.557V95.648L448.125 95.504C443.325 102.416 436.749 105.872 428.397 105.872C418.605 105.872 411.358 102.752 406.654 96.512C401.95 90.272 399.598 81.728 399.598 70.88C399.598 57.824 402.766 47.648 409.102 40.352C415.438 33.056 424.941 29.408 437.613 29.408C445.773 29.408 454.318 31.088 463.246 34.448ZM446.542 81.104V43.808C443.854 42.56 440.157 41.936 435.453 41.936C429.021 41.936 424.366 44.528 421.486 49.712C418.606 54.896 417.165 61.76 417.165 70.304C417.165 85.856 422.158 93.632 432.142 93.632C436.366 93.632 439.821 92.384 442.509 89.888C445.197 87.296 446.542 84.368 446.542 81.104Z" fill="#00C09A"/>
<path d="M493.397 66.992C493.397 75.152 494.933 81.488 498.005 86C501.077 90.512 505.493 92.768 511.253 92.768C517.109 92.768 522.869 90.704 528.533 86.576L534.725 97.664C527.909 103.232 519.365 106.016 509.093 106.016C498.821 106.016 490.709 102.8 484.757 96.368C478.901 89.84 475.973 80.24 475.973 67.568C475.973 54.896 479.333 45.392 486.053 39.056C492.869 32.624 500.501 29.408 508.949 29.408C517.493 29.408 525.413 31.376 532.709 35.312V54.032L519.461 55.04V48.128C519.461 45.536 518.501 43.952 516.581 43.376C514.757 42.704 512.837 42.368 510.821 42.368C499.205 42.368 493.397 50.576 493.397 66.992Z" fill="#00C09A"/>
<path d="M575.578 29.408C582.778 29.408 588.49 31.184 592.714 34.736C596.938 38.192 599.05 43.088 599.05 49.424C599.05 53.648 598.138 57.392 596.314 60.656C594.49 63.824 592.234 66.32 589.546 68.144C586.858 69.968 583.594 71.456 579.754 72.608C573.322 74.528 566.074 75.488 558.01 75.488C558.298 80.576 559.882 84.704 562.762 87.872C565.642 90.944 570.058 92.48 576.01 92.48C581.962 92.48 587.914 90.368 593.866 86.144L599.338 97.808C597.418 99.536 594.154 101.312 589.546 103.136C585.034 104.96 579.85 105.872 573.994 105.872C562.282 105.872 553.69 102.656 548.218 96.224C542.746 89.696 540.01 80.768 540.01 69.44C540.01 58.112 543.13 48.608 549.37 40.928C555.61 33.248 564.346 29.408 575.578 29.408ZM568.954 62.384C572.506 61.712 575.77 60.32 578.746 58.208C581.722 56 583.21 53.408 583.21 50.432C583.21 44.576 580.33 41.648 574.57 41.648C569.194 41.648 565.066 43.808 562.186 48.128C559.306 52.352 557.722 57.44 557.434 63.392C561.658 63.296 565.498 62.96 568.954 62.384Z" fill="#00C09A"/>
<path d="M617.824 106.16C614.464 106.16 611.872 105.248 610.048 103.424C608.224 101.504 607.312 99.056 607.312 96.08C607.312 93.008 608.224 90.512 610.048 88.592C611.968 86.576 614.512 85.568 617.68 85.568C620.944 85.568 623.536 86.528 625.456 88.448C627.376 90.272 628.336 92.72 628.336 95.792C628.336 98.768 627.424 101.264 625.6 103.28C623.776 105.2 621.184 106.16 617.824 106.16Z" fill="#00C09A"/>
<path d="M731.236 87.872V47.984C731.236 46.448 730.948 45.392 730.372 44.816C729.892 44.144 728.98 43.76 727.636 43.664L721.588 43.232V31.568H745.924V42.368C747.652 38.624 750.34 35.552 753.988 33.152C757.636 30.656 761.812 29.408 766.516 29.408C771.316 29.408 775.876 30.464 780.196 32.576V54.032L766.804 55.04V48.416C766.804 46.496 766.324 45.296 765.364 44.816C764.308 44.336 763.012 44.096 761.476 44.096C757.636 44.096 754.468 45.488 751.972 48.272C749.572 50.96 748.372 54.416 748.372 58.64V92.048L760.9 92.624V104H722.308V93.056L727.06 92.624C728.5 92.432 729.556 92.048 730.228 91.472C730.9 90.8 731.236 89.6 731.236 87.872Z" fill="#00C09A"/>
<path d="M850.024 103.856C849.16 114.512 846.088 122.336 840.808 127.328C835.528 132.32 827.272 134.816 816.04 134.816C804.808 134.816 796.024 133.232 789.688 130.064V110.048L803.368 108.896V115.808C803.368 118.4 804.568 120.128 806.968 120.992C809.368 121.952 812.68 122.432 816.904 122.432C823.048 122.432 827.368 120.56 829.864 116.816C832.36 113.168 833.608 107.984 833.608 101.264V93.344C829 98.72 822.616 101.408 814.456 101.408C809.464 101.408 805.048 100.448 801.208 98.528C797.464 96.608 794.536 94.016 792.424 90.752C788.296 84.224 786.232 76.544 786.232 67.712C786.232 55.136 789.64 45.632 796.456 39.2C803.272 32.672 812.344 29.408 823.672 29.408C833.08 29.408 841.96 31.184 850.312 34.736V88.16C850.312 96.32 850.216 101.552 850.024 103.856ZM833.608 74.624V43.664C830.248 42.512 826.408 41.936 822.088 41.936C816.232 41.936 811.72 44.096 808.552 48.416C805.48 52.736 803.944 58.592 803.944 65.984C803.944 81.152 808.936 88.736 818.92 88.736C823.048 88.736 826.504 87.488 829.288 84.992C832.168 82.4 833.608 78.944 833.608 74.624Z" fill="#00C09A"/>
<path d="M672.375 22C648.974 22 630 40.9741 630 64.3751C630 87.7762 665.313 135 672.375 135C679.438 135 714.75 87.7762 714.75 64.3751C714.75 40.9741 695.776 22 672.375 22ZM672.375 92.6249C656.795 92.6249 644.125 79.9481 644.125 64.3751C644.125 48.8022 656.795 36.1249 672.375 36.1249C687.956 36.1249 700.625 48.8022 700.625 64.3751C700.625 79.9481 687.956 92.6249 672.375 92.6249Z" fill="#FFD800"/>
</svg>
