<svg width="872" height="144" viewBox="0 0 872 144" fill="none" xmlns="http://www.w3.org/2000/svg">
<path d="M58.396 43.448H72.364L87.34 97.016H87.628L97.42 52.52L90.076 52.088V40.568H119.02V51.656L114.268 51.944C112.348 52.136 111.052 53.288 110.38 55.4L96.7 113H75.964L64.156 70.088H63.724L51.484 113H30.316L15.772 55.544C15.292 54.2 14.764 53.288 14.188 52.808C13.708 52.328 12.844 52.04 11.596 51.944L7.42001 51.656V40.568H40.396V52.088L32.332 52.52L42.268 96.728H42.556L58.396 43.448ZM151.265 40.568V101.048L159.473 101.48V113H125.201V102.056L129.953 101.624C132.737 101.336 134.129 99.8 134.129 97.016V56.984C134.129 55.352 133.841 54.248 133.265 53.672C132.785 53.096 131.873 52.808 130.529 52.808L125.489 52.52V40.568H151.265ZM133.121 28.184C131.105 26.168 130.097 23.624 130.097 20.552C130.097 17.48 131.105 14.936 133.121 12.92C135.137 10.808 137.777 9.752 141.041 9.752C144.305 9.752 146.945 10.808 148.961 12.92C151.073 14.936 152.129 17.48 152.129 20.552C152.129 23.624 151.073 26.168 148.961 28.184C146.945 30.104 144.305 31.064 141.041 31.064C137.777 31.064 135.137 30.104 133.121 28.184ZM176.738 96.872V26.744C176.738 25.208 176.45 24.152 175.874 23.576C175.394 23 174.482 22.664 173.138 22.568L168.098 22.28V10.328H193.73V72.68C199.01 72.2 203.618 70.568 207.554 67.784C211.49 65 214.178 61.352 215.618 56.84C215.906 55.88 216.05 55.112 216.05 54.536C216.05 52.904 215.138 52.088 213.314 52.088L207.842 51.8V40.568H237.65V52.232L230.738 52.52C229.49 62.312 225.266 70.04 218.066 75.704L232.178 101.048L240.962 101.48V113H219.938L203.522 83.048C200.354 83.912 197.09 84.584 193.73 85.064V101.048H193.874L202.082 101.48V113H167.81V102.056L172.562 101.624C174.002 101.432 175.058 101.048 175.73 100.472C176.402 99.8 176.738 98.6 176.738 96.872ZM273.89 40.568V101.048L282.098 101.48V113H247.826V102.056L252.578 101.624C255.362 101.336 256.754 99.8 256.754 97.016V56.984C256.754 55.352 256.466 54.248 255.89 53.672C255.41 53.096 254.498 52.808 253.154 52.808L248.114 52.52V40.568H273.89ZM255.746 28.184C253.73 26.168 252.722 23.624 252.722 20.552C252.722 17.48 253.73 14.936 255.746 12.92C257.762 10.808 260.402 9.752 263.666 9.752C266.93 9.752 269.57 10.808 271.586 12.92C273.698 14.936 274.754 17.48 274.754 20.552C274.754 23.624 273.698 26.168 271.586 28.184C269.57 30.104 266.93 31.064 263.666 31.064C260.402 31.064 257.762 30.104 255.746 28.184ZM298.499 126.68V56.984C298.499 55.352 298.211 54.248 297.635 53.672C297.155 53 296.243 52.664 294.899 52.664L288.851 52.232V40.568H313.187V49.928C314.723 47.048 317.507 44.408 321.539 42.008C325.571 39.608 330.371 38.408 335.939 38.408C353.315 38.408 362.003 50.6 362.003 74.984C362.003 87.944 359.171 97.88 353.507 104.792C347.843 111.704 340.163 115.16 330.467 115.16C324.707 115.16 319.571 113.768 315.059 110.984V130.856L326.723 131.432V142.808H289.571V131.864L294.323 131.432C295.763 131.24 296.819 130.808 297.491 130.136C298.163 129.56 298.499 128.408 298.499 126.68ZM344.147 76.424C344.147 60.392 339.299 52.376 329.603 52.376C325.571 52.376 322.115 53.624 319.235 56.12C316.451 58.52 315.059 61.4 315.059 64.76V97.88C318.707 100.28 323.123 101.48 328.307 101.48C333.587 101.48 337.523 99.08 340.115 94.28C342.803 89.48 344.147 83.528 344.147 76.424ZM392.295 10.328V101.048L400.503 101.48V113H366.231V102.056L370.983 101.624C373.767 101.336 375.159 99.8 375.159 97.016V26.024C375.159 23.912 373.959 22.76 371.559 22.568L366.519 22.28V10.328H392.295ZM469.746 43.448V97.016C469.746 98.552 469.986 99.608 470.466 100.184C471.042 100.76 472.002 101.096 473.346 101.192L477.954 101.48V113H455.058V104.648L454.626 104.504C449.826 111.416 443.25 114.872 434.898 114.872C425.106 114.872 417.858 111.752 413.154 105.512C408.45 99.272 406.098 90.728 406.098 79.88C406.098 66.824 409.266 56.648 415.602 49.352C421.938 42.056 431.442 38.408 444.114 38.408C452.274 38.408 460.818 40.088 469.746 43.448ZM453.042 90.104V52.808C450.354 51.56 446.658 50.936 441.954 50.936C435.522 50.936 430.866 53.528 427.986 58.712C425.106 63.896 423.666 70.76 423.666 79.304C423.666 94.856 428.658 102.632 438.642 102.632C442.866 102.632 446.322 101.384 449.01 98.888C451.698 96.296 453.042 93.368 453.042 90.104ZM499.897 75.992C499.897 84.152 501.433 90.488 504.505 95C507.577 99.512 511.993 101.768 517.753 101.768C523.609 101.768 529.369 99.704 535.033 95.576L541.225 106.664C534.409 112.232 525.865 115.016 515.593 115.016C505.321 115.016 497.209 111.8 491.257 105.368C485.401 98.84 482.473 89.24 482.473 76.568C482.473 63.896 485.833 54.392 492.553 48.056C499.369 41.624 507.001 38.408 515.449 38.408C523.993 38.408 531.913 40.376 539.209 44.312V63.032L525.961 64.04V57.128C525.961 54.536 525.001 52.952 523.081 52.376C521.257 51.704 519.337 51.368 517.321 51.368C505.705 51.368 499.897 59.576 499.897 75.992ZM582.078 38.408C589.278 38.408 594.99 40.184 599.214 43.736C603.438 47.192 605.55 52.088 605.55 58.424C605.55 62.648 604.638 66.392 602.814 69.656C600.99 72.824 598.734 75.32 596.046 77.144C593.358 78.968 590.094 80.456 586.254 81.608C579.822 83.528 572.574 84.488 564.51 84.488C564.798 89.576 566.382 93.704 569.262 96.872C572.142 99.944 576.558 101.48 582.51 101.48C588.462 101.48 594.414 99.368 600.366 95.144L605.838 106.808C603.918 108.536 600.654 110.312 596.046 112.136C591.534 113.96 586.35 114.872 580.494 114.872C568.782 114.872 560.19 111.656 554.718 105.224C549.246 98.696 546.51 89.768 546.51 78.44C546.51 67.112 549.63 57.608 555.87 49.928C562.11 42.248 570.846 38.408 582.078 38.408ZM575.454 71.384C579.006 70.712 582.27 69.32 585.246 67.208C588.222 65 589.71 62.408 589.71 59.432C589.71 53.576 586.83 50.648 581.07 50.648C575.694 50.648 571.566 52.808 568.686 57.128C565.806 61.352 564.222 66.44 563.934 72.392C568.158 72.296 571.998 71.96 575.454 71.384ZM624.324 115.16C620.964 115.16 618.372 114.248 616.548 112.424C614.724 110.504 613.812 108.056 613.812 105.08C613.812 102.008 614.724 99.512 616.548 97.592C618.468 95.576 621.012 94.568 624.18 94.568C627.444 94.568 630.036 95.528 631.956 97.448C633.876 99.272 634.836 101.72 634.836 104.792C634.836 107.768 633.924 110.264 632.1 112.28C630.276 114.2 627.684 115.16 624.324 115.16ZM737.736 96.872V56.984C737.736 55.448 737.448 54.392 736.872 53.816C736.392 53.144 735.48 52.76 734.136 52.664L728.088 52.232V40.568H752.424V51.368C754.152 47.624 756.84 44.552 760.488 42.152C764.136 39.656 768.312 38.408 773.016 38.408C777.816 38.408 782.376 39.464 786.696 41.576V63.032L773.304 64.04V57.416C773.304 55.496 772.824 54.296 771.864 53.816C770.808 53.336 769.512 53.096 767.976 53.096C764.136 53.096 760.968 54.488 758.472 57.272C756.072 59.96 754.872 63.416 754.872 67.64V101.048L767.4 101.624V113H728.808V102.056L733.56 101.624C735 101.432 736.056 101.048 736.728 100.472C737.4 99.8 737.736 98.6 737.736 96.872ZM856.524 112.856C855.66 123.512 852.588 131.336 847.308 136.328C842.028 141.32 833.772 143.816 822.54 143.816C811.308 143.816 802.524 142.232 796.188 139.064V119.048L809.868 117.896V124.808C809.868 127.4 811.068 129.128 813.468 129.992C815.868 130.952 819.18 131.432 823.404 131.432C829.548 131.432 833.868 129.56 836.364 125.816C838.86 122.168 840.108 116.984 840.108 110.264V102.344C835.5 107.72 829.116 110.408 820.956 110.408C815.964 110.408 811.548 109.448 807.708 107.528C803.964 105.608 801.036 103.016 798.924 99.752C794.796 93.224 792.732 85.544 792.732 76.712C792.732 64.136 796.14 54.632 802.956 48.2C809.772 41.672 818.844 38.408 830.172 38.408C839.58 38.408 848.46 40.184 856.812 43.736V97.16C856.812 105.32 856.716 110.552 856.524 112.856ZM840.108 83.624V52.664C836.748 51.512 832.908 50.936 828.588 50.936C822.732 50.936 818.22 53.096 815.052 57.416C811.98 61.736 810.444 67.592 810.444 74.984C810.444 90.152 815.436 97.736 825.42 97.736C829.548 97.736 833.004 96.488 835.788 93.992C838.668 91.4 840.108 87.944 840.108 83.624Z" fill="#019267"/>
<path d="M679.375 31C655.974 31 637 49.9741 637 73.3751C637 96.7762 672.313 144 679.375 144C686.438 144 721.75 96.7762 721.75 73.3751C721.75 49.9741 702.776 31 679.375 31ZM679.375 101.625C663.795 101.625 651.125 88.9481 651.125 73.3751C651.125 57.8021 663.795 45.1249 679.375 45.1249C694.956 45.1249 707.625 57.8021 707.625 73.3751C707.625 88.9481 694.956 101.625 679.375 101.625Z" fill="#00C897"/>
</svg>
