<svg width="44" height="48" viewBox="0 0 44 48" fill="none" xmlns="http://www.w3.org/2000/svg">
<path d="M40.7883 47.1159C40.0215 47.1148 39.2787 46.8488 38.6856 46.3629L22.0108 31.7399L5.35941 46.3179C4.89159 46.7251 4.31656 46.9893 3.70282 47.079C3.08909 47.1686 2.46251 47.0799 1.89775 46.8235C1.33298 46.5671 0.853831 46.1538 0.517367 45.6327C0.180903 45.1117 0.00132145 44.5049 5.95386e-07 43.8846V3.22739C-0.000518589 2.37229 0.338533 1.55198 0.942628 0.946782C1.54672 0.341587 2.36641 0.00103933 3.22151 2.37643e-06H40.7628C41.62 -0.00103615 42.4425 0.338348 43.0496 0.943544C43.6566 1.54874 43.9984 2.37022 44 3.22739V43.8846C43.9978 44.5088 43.8151 45.119 43.474 45.6416C43.1328 46.1643 42.6477 46.5771 42.0773 46.8303C41.6706 47.0199 41.2272 47.1174 40.7785 47.1159H40.7883ZM22.001 27.2841C22.4666 27.2852 22.9161 27.4547 23.2665 27.7614L40.176 42.5937V3.82397H3.82395V42.5839L20.7511 27.7594C21.0977 27.4503 21.5464 27.2804 22.0108 27.2822" fill="white"/>
</svg>
