<svg width="45" height="48" viewBox="0 0 45 48" fill="none" xmlns="http://www.w3.org/2000/svg">
<path d="M41.7153 48C40.9311 47.9989 40.1714 47.7279 39.5648 47.2328L22.511 32.3354L5.48122 47.187C5.00276 47.6019 4.41466 47.871 3.78698 47.9623C3.15929 48.0537 2.51848 47.9633 1.94088 47.7021C1.36328 47.4409 0.873236 47.0198 0.529125 46.489C0.185015 45.9581 0.00135148 45.3399 6.08918e-07 44.7081V3.28795C-0.000530375 2.4168 0.346227 1.5811 0.964052 0.964548C1.58188 0.347996 2.42019 0.00105883 3.29472 2.42102e-06H41.6893C42.5659 -0.00105559 43.4071 0.344697 44.028 0.961249C44.6488 1.5778 44.9984 2.41469 45 3.28795V44.7081C44.9978 45.3439 44.8109 45.9656 44.462 46.498C44.1131 47.0305 43.617 47.4511 43.0336 47.709C42.6177 47.9022 42.1641 48.0015 41.7053 48H41.7153ZM22.501 27.7961C22.9772 27.7972 23.4369 27.9699 23.7953 28.2823L41.0891 43.3929V3.89572H3.91086V43.3829L21.2227 28.2803C21.5772 27.9654 22.0361 27.7922 22.511 27.7941" fill="white"/>
</svg>
