<svg width="17" height="17" viewBox="0 0 17 17" fill="none" xmlns="http://www.w3.org/2000/svg">
<path d="M11.9146 2.04169C9.19274 -0.680562 4.76359 -0.680562 2.04147 2.04169C-0.68049 4.76352 -0.68049 9.19267 2.04147 11.9145C4.67022 14.5434 8.89062 14.6328 11.6285 12.1845L12.1819 12.738C12.0441 13.0912 12.1163 13.5064 12.4011 13.7913L15.3217 16.712C15.7056 17.0961 16.3284 17.0959 16.7121 16.712C17.0962 16.3283 17.0962 15.7057 16.7121 15.3216L13.7916 12.4014C13.5067 12.1167 13.0907 12.0444 12.7381 12.1822L12.1846 11.6283C14.6332 8.89055 14.5435 4.67035 11.9146 2.04169ZM2.87592 11.0805C0.613954 8.81854 0.613954 5.1381 2.87592 2.87614C5.13788 0.613716 8.81841 0.61417 11.0804 2.87614C13.3423 5.1381 13.3423 8.81875 11.0804 11.0807C8.81841 13.3427 5.13788 13.3425 2.87592 11.0805Z" fill="#8D8D8D"/>
<path d="M4.25417 4.20363C5.24216 3.21539 6.39049 2.49821 7.59796 2.05101C6.22998 1.97319 4.76488 2.50547 3.64052 3.62942C2.50069 4.76934 1.96989 6.25974 2.06669 7.64434C2.51046 6.40127 3.23957 5.21798 4.25417 4.20363Z" fill="#8D8D8D"/>
</svg>
