<svg width="535" height="56" viewBox="0 0 535 56" fill="none" xmlns="http://www.w3.org/2000/svg">
<path d="M235.926 23.884H240.97L246.378 43.228H246.482L250.018 27.16L247.366 27.004V22.844H257.818V26.848L256.102 26.952C255.409 27.0213 254.941 27.4373 254.698 28.2L249.758 49H242.27L238.006 33.504H237.85L233.43 49H225.786L220.534 28.252C220.361 27.7667 220.17 27.4373 219.962 27.264C219.789 27.0907 219.477 26.9867 219.026 26.952L217.518 26.848V22.844H229.426V27.004L226.514 27.16L230.102 43.124H230.206L235.926 23.884ZM269.462 22.844V44.684L272.426 44.84V49H260.05V45.048L261.766 44.892C262.771 44.788 263.274 44.2333 263.274 43.228V28.772C263.274 28.1827 263.17 27.784 262.962 27.576C262.789 27.368 262.459 27.264 261.974 27.264L260.154 27.16V22.844H269.462ZM262.91 18.372C262.182 17.644 261.818 16.7253 261.818 15.616C261.818 14.5067 262.182 13.588 262.91 12.86C263.638 12.0973 264.591 11.716 265.77 11.716C266.949 11.716 267.902 12.0973 268.63 12.86C269.393 13.588 269.774 14.5067 269.774 15.616C269.774 16.7253 269.393 17.644 268.63 18.372C267.902 19.0653 266.949 19.412 265.77 19.412C264.591 19.412 263.638 19.0653 262.91 18.372ZM278.661 43.176V17.852C278.661 17.2973 278.557 16.916 278.349 16.708C278.175 16.5 277.846 16.3787 277.361 16.344L275.541 16.24V11.924H284.797V34.44C286.703 34.2667 288.367 33.6773 289.789 32.672C291.21 31.6667 292.181 30.3493 292.701 28.72C292.805 28.3733 292.857 28.096 292.857 27.888C292.857 27.2987 292.527 27.004 291.869 27.004L289.893 26.9V22.844H300.657V27.056L298.161 27.16C297.71 30.696 296.185 33.4867 293.585 35.532L298.681 44.684L301.853 44.84V49H294.261L288.333 38.184C287.189 38.496 286.01 38.7387 284.797 38.912V44.684H284.849L287.813 44.84V49H275.437V45.048L277.153 44.892C277.673 44.8227 278.054 44.684 278.297 44.476C278.539 44.2333 278.661 43.8 278.661 43.176ZM313.743 22.844V44.684L316.707 44.84V49H304.331V45.048L306.047 44.892C307.053 44.788 307.555 44.2333 307.555 43.228V28.772C307.555 28.1827 307.451 27.784 307.243 27.576C307.07 27.368 306.741 27.264 306.255 27.264L304.435 27.16V22.844H313.743ZM307.191 18.372C306.463 17.644 306.099 16.7253 306.099 15.616C306.099 14.5067 306.463 13.588 307.191 12.86C307.919 12.0973 308.873 11.716 310.051 11.716C311.23 11.716 312.183 12.0973 312.911 12.86C313.674 13.588 314.055 14.5067 314.055 15.616C314.055 16.7253 313.674 17.644 312.911 18.372C312.183 19.0653 311.23 19.412 310.051 19.412C308.873 19.412 307.919 19.0653 307.191 18.372Z" fill="#019267"/>
<rect x="252" y="7" width="19" height="15" fill="#FFD365"/>
<rect x="297" y="9" width="19" height="12" fill="#FFD365"/>
<path d="M265.813 7.02906C264.469 7.14595 263.12 7.65247 262.12 8.41356C261.002 9.26556 260.301 10.3539 260.06 11.6111C259.975 12.0423 259.981 12.7203 260.072 13.0944C260.495 14.8555 262.246 17.0764 265.14 19.5181C265.779 20.0584 265.894 20.1467 266.067 20.2117C266.233 20.274 266.305 20.287 266.515 20.287C266.734 20.287 266.793 20.2766 266.984 20.2013C267.185 20.1233 267.282 20.0506 268.08 19.383C270.577 17.2998 272.07 15.5049 272.725 13.8035C273.073 12.9047 273.095 11.9904 272.794 11.0371C271.977 8.46031 269.004 6.75372 265.813 7.02906ZM267.047 9.74091C267.636 9.84481 268.143 10.0968 268.56 10.4916C268.76 10.6838 269.039 11.1436 269.12 11.4163C269.202 11.6969 269.192 12.1878 269.101 12.4683C268.857 13.2216 268.193 13.8061 267.313 14.0451C266.931 14.1464 266.37 14.1749 265.979 14.1074C265.127 13.9645 264.429 13.5048 264.059 12.8398C263.881 12.5203 263.821 12.2917 263.821 11.9229C263.821 11.5254 263.884 11.3098 264.106 10.9358C264.473 10.315 265.127 9.88897 265.938 9.74091C266.204 9.69415 266.774 9.69415 267.047 9.74091Z" fill="#00C897"/>
<path d="M308.128 6.03064C306.712 6.15387 305.289 6.68786 304.235 7.49022C303.057 8.38841 302.317 9.53581 302.063 10.8612C301.974 11.3158 301.98 12.0305 302.076 12.4248C302.522 14.2815 304.368 16.6228 307.418 19.1969C308.092 19.7665 308.214 19.8596 308.396 19.9281C308.571 19.9938 308.647 20.0075 308.868 20.0075C309.099 20.0075 309.162 19.9965 309.363 19.9171C309.574 19.835 309.677 19.7583 310.519 19.0545C313.15 16.8583 314.725 14.9661 315.415 13.1724C315.782 12.2249 315.805 11.261 315.488 10.256C314.626 7.53951 311.493 5.74037 308.128 6.03064ZM309.429 8.88954C310.05 8.99908 310.585 9.2647 311.024 9.68094C311.235 9.88358 311.529 10.3683 311.615 10.6558C311.701 10.9516 311.691 11.4691 311.595 11.7649C311.337 12.559 310.637 13.1751 309.71 13.4271C309.307 13.5339 308.716 13.564 308.303 13.4928C307.405 13.3422 306.669 12.8575 306.279 12.1565C306.091 11.8196 306.028 11.5787 306.028 11.1898C306.028 10.7708 306.094 10.5435 306.329 10.1492C306.715 9.49473 307.405 9.04563 308.26 8.88954C308.541 8.84025 309.142 8.84025 309.429 8.88954Z" fill="#00C897"/>
</svg>
