<svg width="284" height="135" viewBox="0 0 284 135" fill="none" xmlns="http://www.w3.org/2000/svg">
<path d="M54.5644 65.448H68.5324L83.5084 119.016H83.7964L93.5884 74.52L86.2444 74.088V62.568H115.188V73.656L110.436 73.944C108.516 74.136 107.22 75.288 106.548 77.4L92.8684 135H72.1324L60.3244 92.088H59.8924L47.6524 135H26.4844L11.9404 77.544C11.4604 76.2 10.9324 75.288 10.3564 74.808C9.87644 74.328 9.01244 74.04 7.76444 73.944L3.58844 73.656V62.568H36.5644V74.088L28.5004 74.52L38.4364 118.728H38.7244L54.5644 65.448ZM147.433 62.568V123.048L155.641 123.48V135H121.369V124.056L126.121 123.624C128.905 123.336 130.297 121.8 130.297 119.016V78.984C130.297 77.352 130.009 76.248 129.433 75.672C128.953 75.096 128.041 74.808 126.697 74.808L121.657 74.52V62.568H147.433ZM129.289 50.184C127.273 48.168 126.265 45.624 126.265 42.552C126.265 39.48 127.273 36.936 129.289 34.92C131.305 32.808 133.945 31.752 137.209 31.752C140.473 31.752 143.113 32.808 145.129 34.92C147.241 36.936 148.297 39.48 148.297 42.552C148.297 45.624 147.241 48.168 145.129 50.184C143.113 52.104 140.473 53.064 137.209 53.064C133.945 53.064 131.305 52.104 129.289 50.184ZM172.907 118.872V48.744C172.907 47.208 172.619 46.152 172.043 45.576C171.563 45 170.651 44.664 169.307 44.568L164.267 44.28V32.328H189.899V94.68C195.179 94.2 199.787 92.568 203.723 89.784C207.659 87 210.347 83.352 211.787 78.84C212.075 77.88 212.219 77.112 212.219 76.536C212.219 74.904 211.307 74.088 209.483 74.088L204.011 73.8V62.568H233.819V74.232L226.907 74.52C225.659 84.312 221.435 92.04 214.235 97.704L228.347 123.048L237.131 123.48V135H216.107L199.691 105.048C196.523 105.912 193.259 106.584 189.899 107.064V123.048H190.043L198.251 123.48V135H163.979V124.056L168.731 123.624C170.171 123.432 171.227 123.048 171.899 122.472C172.571 121.8 172.907 120.6 172.907 118.872ZM270.058 62.568V123.048L278.266 123.48V135H243.994V124.056L248.746 123.624C251.53 123.336 252.922 121.8 252.922 119.016V78.984C252.922 77.352 252.634 76.248 252.058 75.672C251.578 75.096 250.666 74.808 249.322 74.808L244.282 74.52V62.568H270.058ZM251.914 50.184C249.898 48.168 248.89 45.624 248.89 42.552C248.89 39.48 249.898 36.936 251.914 34.92C253.93 32.808 256.57 31.752 259.834 31.752C263.098 31.752 265.738 32.808 267.754 34.92C269.866 36.936 270.922 39.48 270.922 42.552C270.922 45.624 269.866 48.168 267.754 50.184C265.738 52.104 263.098 53.064 259.834 53.064C256.57 53.064 253.93 52.104 251.914 50.184Z" fill="#019267"/>
<path d="M134.509 0.129704C129.538 0.651196 124.543 2.911 120.846 6.30649C116.709 10.1076 114.113 14.9633 113.221 20.5722C112.908 22.4959 112.931 25.5206 113.267 27.1894C114.832 35.0465 121.31 44.9549 132.018 55.8482C134.382 58.2587 134.811 58.6527 135.448 58.9424C136.062 59.2206 136.329 59.2785 137.105 59.2785C137.916 59.2785 138.137 59.2321 138.844 58.8961C139.585 58.5484 139.944 58.2239 142.9 55.2456C152.136 45.9515 157.664 37.9437 160.086 30.3531C161.372 26.3434 161.453 22.2641 160.341 18.0111C157.316 6.51509 146.318 -1.0987 134.509 0.129704ZM139.075 12.2283C141.254 12.6919 143.131 13.816 144.673 15.5775C145.414 16.435 146.446 18.4862 146.747 19.703C147.048 20.9546 147.014 23.1449 146.678 24.3965C145.774 27.7572 143.317 30.3647 140.06 31.4308C138.647 31.8828 136.572 32.0103 135.124 31.709C131.971 31.0716 129.387 29.0204 128.02 26.0537C127.359 24.6282 127.139 23.6084 127.139 21.9628C127.139 20.1898 127.371 19.2279 128.194 17.5591C129.549 14.7894 131.971 12.8889 134.973 12.2283C135.958 12.0197 138.067 12.0197 139.075 12.2283Z" fill="#00C897"/>
<path d="M256.509 0.129704C251.538 0.651196 246.543 2.911 242.846 6.30649C238.709 10.1076 236.113 14.9633 235.221 20.5722C234.908 22.4959 234.931 25.5206 235.267 27.1894C236.832 35.0465 243.31 44.9549 254.018 55.8482C256.382 58.2587 256.811 58.6527 257.448 58.9424C258.062 59.2206 258.329 59.2785 259.105 59.2785C259.916 59.2785 260.137 59.2321 260.844 58.8961C261.585 58.5484 261.944 58.2239 264.9 55.2456C274.136 45.9515 279.664 37.9437 282.086 30.3531C283.372 26.3434 283.453 22.2641 282.341 18.0111C279.316 6.51509 268.318 -1.0987 256.509 0.129704ZM261.075 12.2283C263.254 12.6919 265.131 13.816 266.673 15.5775C267.414 16.435 268.446 18.4862 268.747 19.703C269.048 20.9546 269.014 23.1449 268.678 24.3965C267.774 27.7572 265.317 30.3647 262.06 31.4308C260.647 31.8828 258.572 32.0103 257.124 31.709C253.971 31.0716 251.387 29.0204 250.02 26.0537C249.359 24.6282 249.139 23.6084 249.139 21.9628C249.139 20.1898 249.371 19.2279 250.194 17.5591C251.549 14.7894 253.971 12.8889 256.973 12.2283C257.958 12.0197 260.067 12.0197 261.075 12.2283Z" fill="#00C897"/>
</svg>
